<?xml version="1.0" encoding="utf-8"?>
<!-- Generator: Adobe Illustrator 15.0.0, SVG Export Plug-In . SVG Version: 6.00 Build 0)  -->
<!DOCTYPE svg PUBLIC "-//W3C//DTD SVG 1.1//EN" "http://www.w3.org/Graphics/SVG/1.1/DTD/svg11.dtd">
<svg version="1.1" id="Layer_1" xmlns="http://www.w3.org/2000/svg" xmlns:xlink="http://www.w3.org/1999/xlink" x="0px" y="0px"
	 width="800px" height="600px" viewBox="0 0 800 600" enable-background="new 0 0 800 600" xml:space="preserve">
<polygon fill="#3FA9F5" points="725.807,127.681 748.039,26.24 51.961,26.24 74.194,127.68 "/>
<polygon fill="#7AC943" points="97.991,236.26 77.323,141.96 722.677,141.959 702.008,236.262 "/>
<polygon fill="#FF931E" points="121.789,344.84 101.121,250.54 698.879,250.54 678.209,344.841 "/>
<polygon fill="#FF1D25" points="145.586,453.417 124.918,359.12 675.08,359.12 654.413,453.421 "/>
<polygon fill="#FF7BAC" points="169.384,561.999 148.718,467.704 651.283,467.699 630.615,562 "/>
<g>
	<path d="M359.025,91l-1.863-6.117h-9.369L345.93,91h-5.871l9.07-25.805h6.662L364.896,91H359.025z M355.861,80.312
		c-1.723-5.543-2.692-8.678-2.909-9.404s-0.372-1.301-0.466-1.723c-0.387,1.5-1.494,5.209-3.322,11.127H355.861z"/>
	<path d="M373.932,91.352c-2.32,0-4.137-0.894-5.449-2.681s-1.969-4.274-1.969-7.462c0-3.211,0.671-5.719,2.013-7.523
		s3.179-2.707,5.511-2.707c1.242,0,2.326,0.234,3.252,0.703s1.74,1.195,2.443,2.18h0.141l0.475-2.514h4.535v28.301h-5.379v-8.244
		c0-0.715,0.076-1.699,0.229-2.953h-0.229c-0.574,0.949-1.336,1.67-2.285,2.162S375.174,91.352,373.932,91.352z M375.848,87.15
		c1.359,0,2.355-0.39,2.988-1.169s0.979-2.142,1.037-4.087v-0.65c0-2.109-0.325-3.621-0.976-4.535s-1.696-1.371-3.138-1.371
		c-2.52,0-3.779,1.98-3.779,5.941c0,1.969,0.313,3.439,0.94,4.412S374.523,87.15,375.848,87.15z"/>
	<path d="M404.412,91l-0.721-2.514h-0.281c-0.574,0.914-1.389,1.62-2.443,2.118s-2.256,0.747-3.604,0.747
		c-2.309,0-4.049-0.618-5.221-1.854s-1.758-3.015-1.758-5.335V71.348h5.361v11.479c0,1.418,0.252,2.481,0.756,3.19
		s1.307,1.063,2.408,1.063c1.5,0,2.584-0.501,3.252-1.503s1.002-2.663,1.002-4.983v-9.246h5.361V91H404.412z"/>
	<path d="M413.922,66.268c0-1.746,0.973-2.619,2.918-2.619s2.918,0.873,2.918,2.619c0,0.832-0.243,1.479-0.729,1.942
		s-1.216,0.694-2.188,0.694C414.895,68.904,413.922,68.025,413.922,66.268z M419.512,91h-5.361V71.348h5.361V91z"/>
	<path d="M436.105,70.979c0.727,0,1.33,0.053,1.811,0.158l-0.404,5.027c-0.434-0.117-0.961-0.176-1.582-0.176
		c-1.711,0-3.044,0.439-3.999,1.318s-1.433,2.109-1.433,3.691V91h-5.361V71.348h4.061l0.791,3.305h0.264
		c0.609-1.102,1.433-1.989,2.47-2.663S434.887,70.979,436.105,70.979z"/>
	<path d="M450.379,91.352c-3.164,0-5.637-0.873-7.418-2.619s-2.672-4.219-2.672-7.418c0-3.293,0.823-5.839,2.47-7.638
		s3.923-2.698,6.829-2.698c2.777,0,4.939,0.791,6.486,2.373s2.32,3.768,2.32,6.557v2.602h-12.674
		c0.059,1.523,0.51,2.713,1.354,3.568s2.027,1.283,3.551,1.283c1.184,0,2.303-0.123,3.357-0.369s2.156-0.639,3.305-1.178v4.148
		c-0.938,0.469-1.939,0.817-3.006,1.046S451.914,91.352,450.379,91.352z M449.623,74.793c-1.137,0-2.027,0.36-2.672,1.081
		s-1.014,1.743-1.107,3.067h7.523c-0.023-1.324-0.369-2.347-1.037-3.067S450.76,74.793,449.623,74.793z"/>
</g>
<g>
	<path d="M326.594,200.11l-1.863-6.117h-9.369l-1.863,6.117h-5.871l9.07-25.805h6.662l9.105,25.805H326.594z M323.43,189.423
		c-1.723-5.543-2.692-8.678-2.909-9.404s-0.372-1.301-0.466-1.723c-0.387,1.5-1.494,5.209-3.322,11.127H323.43z"/>
	<path d="M343.258,200.462c-6.117,0-9.176-3.357-9.176-10.072c0-3.34,0.832-5.892,2.496-7.655s4.049-2.646,7.154-2.646
		c2.273,0,4.312,0.445,6.117,1.336l-1.582,4.148c-0.844-0.34-1.629-0.618-2.355-0.835s-1.453-0.325-2.18-0.325
		c-2.789,0-4.184,1.98-4.184,5.941c0,3.844,1.395,5.766,4.184,5.766c1.031,0,1.986-0.138,2.865-0.413s1.758-0.706,2.637-1.292v4.588
		c-0.867,0.551-1.743,0.932-2.628,1.143S344.605,200.462,343.258,200.462z"/>
	<path d="M362.066,196.19c0.938,0,2.062-0.205,3.375-0.615v3.99c-1.336,0.598-2.977,0.896-4.922,0.896
		c-2.145,0-3.706-0.542-4.685-1.626s-1.468-2.71-1.468-4.878v-9.475h-2.566v-2.268l2.953-1.793l1.547-4.148h3.428v4.184h5.502v4.025
		h-5.502v9.475c0,0.762,0.214,1.324,0.642,1.688S361.363,196.19,362.066,196.19z"/>
	<path d="M369.186,175.378c0-1.746,0.973-2.619,2.918-2.619s2.918,0.873,2.918,2.619c0,0.832-0.243,1.479-0.729,1.942
		s-1.216,0.694-2.188,0.694C370.158,178.015,369.186,177.136,369.186,175.378z M374.775,200.11h-5.361v-19.652h5.361V200.11z"/>
	<path d="M385.076,200.11l-7.488-19.652h5.607l3.797,11.197c0.422,1.418,0.686,2.76,0.791,4.025h0.105
		c0.059-1.125,0.322-2.467,0.791-4.025l3.779-11.197h5.607l-7.488,19.652H385.076z"/>
	<path d="M413.359,200.11l-1.037-2.672h-0.141c-0.902,1.137-1.831,1.925-2.786,2.364s-2.2,0.659-3.735,0.659
		c-1.887,0-3.372-0.539-4.456-1.617s-1.626-2.613-1.626-4.605c0-2.086,0.729-3.624,2.188-4.614s3.659-1.538,6.601-1.644l3.41-0.105
		v-0.861c0-1.992-1.02-2.988-3.059-2.988c-1.57,0-3.416,0.475-5.537,1.424l-1.775-3.621c2.262-1.184,4.77-1.775,7.523-1.775
		c2.637,0,4.658,0.574,6.064,1.723s2.109,2.895,2.109,5.238v13.096H413.359z M411.777,191.005l-2.074,0.07
		c-1.559,0.047-2.719,0.328-3.48,0.844s-1.143,1.301-1.143,2.355c0,1.512,0.867,2.268,2.602,2.268c1.242,0,2.235-0.357,2.979-1.072
		s1.116-1.664,1.116-2.848V191.005z"/>
	<path d="M430.902,196.19c0.938,0,2.062-0.205,3.375-0.615v3.99c-1.336,0.598-2.977,0.896-4.922,0.896
		c-2.145,0-3.706-0.542-4.685-1.626s-1.468-2.71-1.468-4.878v-9.475h-2.566v-2.268l2.953-1.793l1.547-4.148h3.428v4.184h5.502v4.025
		h-5.502v9.475c0,0.762,0.214,1.324,0.642,1.688S430.199,196.19,430.902,196.19z"/>
	<path d="M438.021,175.378c0-1.746,0.973-2.619,2.918-2.619s2.918,0.873,2.918,2.619c0,0.832-0.243,1.479-0.729,1.942
		s-1.216,0.694-2.188,0.694C438.994,178.015,438.021,177.136,438.021,175.378z M443.611,200.11h-5.361v-19.652h5.361V200.11z"/>
	<path d="M467.096,190.249c0,3.199-0.844,5.701-2.531,7.506s-4.037,2.707-7.049,2.707c-1.887,0-3.551-0.413-4.992-1.239
		s-2.549-2.013-3.322-3.56s-1.16-3.352-1.16-5.414c0-3.211,0.838-5.707,2.514-7.488s4.031-2.672,7.066-2.672
		c1.887,0,3.551,0.41,4.992,1.23s2.549,1.998,3.322,3.533S467.096,188.187,467.096,190.249z M453.508,190.249
		c0,1.945,0.319,3.416,0.958,4.412s1.679,1.494,3.12,1.494c1.43,0,2.458-0.495,3.085-1.485s0.94-2.464,0.94-4.421
		c0-1.945-0.316-3.404-0.949-4.377s-1.67-1.459-3.111-1.459c-1.43,0-2.461,0.483-3.094,1.45S453.508,188.292,453.508,190.249z"/>
	<path d="M489.666,200.11h-5.361v-11.479c0-1.418-0.252-2.481-0.756-3.19s-1.307-1.063-2.408-1.063c-1.5,0-2.584,0.501-3.252,1.503
		s-1.002,2.663-1.002,4.983v9.246h-5.361v-19.652h4.096l0.721,2.514h0.299c0.598-0.949,1.421-1.667,2.47-2.153
		s2.241-0.729,3.577-0.729c2.285,0,4.02,0.618,5.203,1.854s1.775,3.021,1.775,5.353V200.11z"/>
</g>
<g>
	<path d="M319.606,301.249v9.861h-5.449v-25.699h7.488c3.492,0,6.076,0.636,7.752,1.907s2.514,3.202,2.514,5.792
		c0,1.512-0.416,2.856-1.248,4.034s-2.01,2.101-3.533,2.769c3.867,5.777,6.387,9.51,7.559,11.197h-6.047l-6.135-9.861H319.606z
		 M319.606,296.819h1.758c1.723,0,2.994-0.287,3.814-0.861s1.23-1.477,1.23-2.707c0-1.219-0.419-2.086-1.257-2.602
		s-2.136-0.773-3.894-0.773h-1.652V296.819z"/>
	<path d="M346.396,311.462c-3.164,0-5.637-0.873-7.418-2.619s-2.672-4.219-2.672-7.418c0-3.293,0.823-5.839,2.47-7.638
		s3.923-2.698,6.829-2.698c2.777,0,4.939,0.791,6.486,2.373s2.32,3.768,2.32,6.557v2.602h-12.674
		c0.059,1.523,0.51,2.713,1.354,3.568s2.027,1.283,3.551,1.283c1.184,0,2.303-0.123,3.357-0.369s2.156-0.639,3.305-1.178v4.148
		c-0.938,0.469-1.939,0.817-3.006,1.046S347.931,311.462,346.396,311.462z M345.64,294.903c-1.137,0-2.027,0.36-2.672,1.081
		s-1.014,1.743-1.107,3.067h7.523c-0.023-1.324-0.369-2.347-1.037-3.067S346.776,294.903,345.64,294.903z"/>
	<path d="M367.05,307.19c0.938,0,2.062-0.205,3.375-0.615v3.99c-1.336,0.598-2.977,0.896-4.922,0.896
		c-2.145,0-3.706-0.542-4.685-1.626s-1.468-2.71-1.468-4.878v-9.475h-2.566v-2.268l2.953-1.793l1.547-4.148h3.428v4.184h5.502v4.025
		h-5.502v9.475c0,0.762,0.214,1.324,0.642,1.688S366.347,307.19,367.05,307.19z"/>
	<path d="M383.292,311.462c-3.164,0-5.637-0.873-7.418-2.619s-2.672-4.219-2.672-7.418c0-3.293,0.823-5.839,2.47-7.638
		s3.923-2.698,6.829-2.698c2.777,0,4.939,0.791,6.486,2.373s2.32,3.768,2.32,6.557v2.602h-12.674
		c0.059,1.523,0.51,2.713,1.354,3.568s2.027,1.283,3.551,1.283c1.184,0,2.303-0.123,3.357-0.369s2.156-0.639,3.305-1.178v4.148
		c-0.938,0.469-1.939,0.817-3.006,1.046S384.827,311.462,383.292,311.462z M382.536,294.903c-1.137,0-2.027,0.36-2.672,1.081
		s-1.014,1.743-1.107,3.067h7.523c-0.023-1.324-0.369-2.347-1.037-3.067S383.673,294.903,382.536,294.903z"/>
	<path d="M413.808,311.11h-5.361v-11.479c0-1.418-0.252-2.481-0.756-3.19s-1.307-1.063-2.408-1.063c-1.5,0-2.584,0.501-3.252,1.503
		s-1.002,2.663-1.002,4.983v9.246h-5.361v-19.652h4.096l0.721,2.514h0.299c0.598-0.949,1.421-1.667,2.47-2.153
		s2.241-0.729,3.577-0.729c2.285,0,4.02,0.618,5.203,1.854s1.775,3.021,1.775,5.353V311.11z"/>
	<path d="M427.606,307.19c0.938,0,2.062-0.205,3.375-0.615v3.99c-1.336,0.598-2.977,0.896-4.922,0.896
		c-2.145,0-3.706-0.542-4.685-1.626s-1.468-2.71-1.468-4.878v-9.475h-2.566v-2.268l2.953-1.793l1.547-4.148h3.428v4.184h5.502v4.025
		h-5.502v9.475c0,0.762,0.214,1.324,0.642,1.688S426.903,307.19,427.606,307.19z"/>
	<path d="M434.726,286.378c0-1.746,0.973-2.619,2.918-2.619s2.918,0.873,2.918,2.619c0,0.832-0.243,1.479-0.729,1.942
		s-1.216,0.694-2.188,0.694C435.698,289.015,434.726,288.136,434.726,286.378z M440.315,311.11h-5.361v-19.652h5.361V311.11z"/>
	<path d="M463.8,301.249c0,3.199-0.844,5.701-2.531,7.506s-4.037,2.707-7.049,2.707c-1.887,0-3.551-0.413-4.992-1.239
		s-2.549-2.013-3.322-3.56s-1.16-3.352-1.16-5.414c0-3.211,0.838-5.707,2.514-7.488s4.031-2.672,7.066-2.672
		c1.887,0,3.551,0.41,4.992,1.23s2.549,1.998,3.322,3.533S463.8,299.187,463.8,301.249z M450.212,301.249
		c0,1.945,0.319,3.416,0.958,4.412s1.679,1.494,3.12,1.494c1.43,0,2.458-0.495,3.085-1.485s0.94-2.464,0.94-4.421
		c0-1.945-0.316-3.404-0.949-4.377s-1.67-1.459-3.111-1.459c-1.43,0-2.461,0.483-3.094,1.45S450.212,299.292,450.212,301.249z"/>
	<path d="M486.37,311.11h-5.361v-11.479c0-1.418-0.252-2.481-0.756-3.19s-1.307-1.063-2.408-1.063c-1.5,0-2.584,0.501-3.252,1.503
		s-1.002,2.663-1.002,4.983v9.246h-5.361v-19.652h4.096l0.721,2.514h0.299c0.598-0.949,1.421-1.667,2.47-2.153
		s2.241-0.729,3.577-0.729c2.285,0,4.02,0.618,5.203,1.854s1.775,3.021,1.775,5.353V311.11z"/>
</g>
<g>
	<path d="M337.062,406.249v9.861h-5.449v-25.699h7.488c3.492,0,6.076,0.636,7.752,1.907s2.514,3.202,2.514,5.792
		c0,1.512-0.416,2.856-1.248,4.034s-2.01,2.101-3.533,2.769c3.867,5.777,6.387,9.51,7.559,11.197h-6.047l-6.135-9.861H337.062z
		 M337.062,401.819h1.758c1.723,0,2.994-0.287,3.814-0.861s1.23-1.477,1.23-2.707c0-1.219-0.419-2.086-1.257-2.602
		s-2.136-0.773-3.894-0.773h-1.652V401.819z"/>
	<path d="M363.851,416.462c-3.164,0-5.637-0.873-7.418-2.619s-2.672-4.219-2.672-7.418c0-3.293,0.823-5.839,2.47-7.638
		s3.923-2.698,6.829-2.698c2.777,0,4.939,0.791,6.486,2.373s2.32,3.768,2.32,6.557v2.602h-12.674
		c0.059,1.523,0.51,2.713,1.354,3.568s2.027,1.283,3.551,1.283c1.184,0,2.303-0.123,3.357-0.369s2.156-0.639,3.305-1.178v4.148
		c-0.938,0.469-1.939,0.817-3.006,1.046S365.386,416.462,363.851,416.462z M363.095,399.903c-1.137,0-2.027,0.36-2.672,1.081
		s-1.014,1.743-1.107,3.067h7.523c-0.023-1.324-0.369-2.347-1.037-3.067S364.231,399.903,363.095,399.903z"/>
	<path d="M387.089,400.483h-4.641v15.627h-5.361v-15.627h-2.953v-2.584l2.953-1.441v-1.441c0-2.238,0.551-3.873,1.652-4.904
		s2.865-1.547,5.291-1.547c1.852,0,3.498,0.275,4.939,0.826l-1.371,3.938c-1.078-0.34-2.074-0.51-2.988-0.51
		c-0.762,0-1.312,0.226-1.652,0.677s-0.51,1.028-0.51,1.731v1.23h4.641V400.483z M401.028,400.483h-4.641v15.627h-5.361v-15.627
		h-2.953v-2.584l2.953-1.441v-1.441c0-2.238,0.551-3.873,1.652-4.904s2.865-1.547,5.291-1.547c1.852,0,3.498,0.275,4.939,0.826
		l-1.371,3.938c-1.078-0.34-2.074-0.51-2.988-0.51c-0.762,0-1.312,0.226-1.652,0.677s-0.51,1.028-0.51,1.731v1.23h4.641V400.483z"/>
	<path d="M412.981,416.462c-3.164,0-5.637-0.873-7.418-2.619s-2.672-4.219-2.672-7.418c0-3.293,0.823-5.839,2.47-7.638
		s3.923-2.698,6.829-2.698c2.777,0,4.939,0.791,6.486,2.373s2.32,3.768,2.32,6.557v2.602h-12.674
		c0.059,1.523,0.51,2.713,1.354,3.568s2.027,1.283,3.551,1.283c1.184,0,2.303-0.123,3.357-0.369s2.156-0.639,3.305-1.178v4.148
		c-0.938,0.469-1.939,0.817-3.006,1.046S414.517,416.462,412.981,416.462z M412.226,399.903c-1.137,0-2.027,0.36-2.672,1.081
		s-1.014,1.743-1.107,3.067h7.523c-0.023-1.324-0.369-2.347-1.037-3.067S413.362,399.903,412.226,399.903z"/>
	<path d="M436.325,396.089c0.727,0,1.33,0.053,1.811,0.158l-0.404,5.027c-0.434-0.117-0.961-0.176-1.582-0.176
		c-1.711,0-3.044,0.439-3.999,1.318s-1.433,2.109-1.433,3.691v10.002h-5.361v-19.652h4.061l0.791,3.305h0.264
		c0.609-1.102,1.433-1.989,2.47-2.663S435.106,396.089,436.325,396.089z"/>
	<path d="M454.185,416.11l-1.037-2.672h-0.141c-0.902,1.137-1.831,1.925-2.786,2.364s-2.2,0.659-3.735,0.659
		c-1.887,0-3.372-0.539-4.456-1.617s-1.626-2.613-1.626-4.605c0-2.086,0.729-3.624,2.188-4.614s3.659-1.538,6.601-1.644l3.41-0.105
		v-0.861c0-1.992-1.02-2.988-3.059-2.988c-1.57,0-3.416,0.475-5.537,1.424l-1.775-3.621c2.262-1.184,4.77-1.775,7.523-1.775
		c2.637,0,4.658,0.574,6.064,1.723s2.109,2.895,2.109,5.238v13.096H454.185z M452.603,407.005l-2.074,0.07
		c-1.559,0.047-2.719,0.328-3.48,0.844s-1.143,1.301-1.143,2.355c0,1.512,0.867,2.268,2.602,2.268c1.242,0,2.235-0.357,2.979-1.072
		s1.116-1.664,1.116-2.848V407.005z"/>
	<path d="M468.81,416.11h-5.361v-27.352h5.361V416.11z"/>
</g>
<g>
	<path d="M330.997,518.249v9.861h-5.449v-25.699h7.488c3.492,0,6.076,0.636,7.752,1.907s2.514,3.202,2.514,5.792
		c0,1.512-0.416,2.856-1.248,4.034s-2.01,2.101-3.533,2.769c3.867,5.777,6.387,9.51,7.559,11.197h-6.047l-6.135-9.861H330.997z
		 M330.997,513.819h1.758c1.723,0,2.994-0.287,3.814-0.861s1.23-1.477,1.23-2.707c0-1.219-0.419-2.086-1.257-2.602
		s-2.136-0.773-3.894-0.773h-1.652V513.819z"/>
	<path d="M357.786,528.462c-3.164,0-5.637-0.873-7.418-2.619s-2.672-4.219-2.672-7.418c0-3.293,0.823-5.839,2.47-7.638
		s3.923-2.698,6.829-2.698c2.777,0,4.939,0.791,6.486,2.373s2.32,3.768,2.32,6.557v2.602h-12.674
		c0.059,1.523,0.51,2.713,1.354,3.568s2.027,1.283,3.551,1.283c1.184,0,2.303-0.123,3.357-0.369s2.156-0.639,3.305-1.178v4.148
		c-0.938,0.469-1.939,0.817-3.006,1.046S359.321,528.462,357.786,528.462z M357.03,511.903c-1.137,0-2.027,0.36-2.672,1.081
		s-1.014,1.743-1.107,3.067h7.523c-0.023-1.324-0.369-2.347-1.037-3.067S358.167,511.903,357.03,511.903z"/>
	<path d="M374.837,528.11l-7.488-19.652h5.607l3.797,11.197c0.422,1.418,0.686,2.76,0.791,4.025h0.105
		c0.059-1.125,0.322-2.467,0.791-4.025l3.779-11.197h5.607l-7.488,19.652H374.837z"/>
	<path d="M399.534,528.462c-3.164,0-5.637-0.873-7.418-2.619s-2.672-4.219-2.672-7.418c0-3.293,0.823-5.839,2.47-7.638
		s3.923-2.698,6.829-2.698c2.777,0,4.939,0.791,6.486,2.373s2.32,3.768,2.32,6.557v2.602h-12.674
		c0.059,1.523,0.51,2.713,1.354,3.568s2.027,1.283,3.551,1.283c1.184,0,2.303-0.123,3.357-0.369s2.156-0.639,3.305-1.178v4.148
		c-0.938,0.469-1.939,0.817-3.006,1.046S401.069,528.462,399.534,528.462z M398.778,511.903c-1.137,0-2.027,0.36-2.672,1.081
		s-1.014,1.743-1.107,3.067h7.523c-0.023-1.324-0.369-2.347-1.037-3.067S399.915,511.903,398.778,511.903z"/>
	<path d="M430.05,528.11h-5.361v-11.479c0-1.418-0.252-2.481-0.756-3.19s-1.307-1.063-2.408-1.063c-1.5,0-2.584,0.501-3.252,1.503
		s-1.002,2.663-1.002,4.983v9.246h-5.361v-19.652h4.096l0.721,2.514h0.299c0.598-0.949,1.421-1.667,2.47-2.153
		s2.241-0.729,3.577-0.729c2.285,0,4.02,0.618,5.203,1.854s1.775,3.021,1.775,5.353V528.11z"/>
	<path d="M449.491,528.11l-0.721-2.514h-0.281c-0.574,0.914-1.389,1.62-2.443,2.118s-2.256,0.747-3.604,0.747
		c-2.309,0-4.049-0.618-5.221-1.854s-1.758-3.015-1.758-5.335v-12.814h5.361v11.479c0,1.418,0.252,2.481,0.756,3.19
		s1.307,1.063,2.408,1.063c1.5,0,2.584-0.501,3.252-1.503s1.002-2.663,1.002-4.983v-9.246h5.361v19.652H449.491z"/>
	<path d="M468.124,528.462c-3.164,0-5.637-0.873-7.418-2.619s-2.672-4.219-2.672-7.418c0-3.293,0.823-5.839,2.47-7.638
		s3.923-2.698,6.829-2.698c2.777,0,4.939,0.791,6.486,2.373s2.32,3.768,2.32,6.557v2.602h-12.674
		c0.059,1.523,0.51,2.713,1.354,3.568s2.027,1.283,3.551,1.283c1.184,0,2.303-0.123,3.357-0.369s2.156-0.639,3.305-1.178v4.148
		c-0.938,0.469-1.939,0.817-3.006,1.046S469.659,528.462,468.124,528.462z M467.368,511.903c-1.137,0-2.027,0.36-2.672,1.081
		s-1.014,1.743-1.107,3.067h7.523c-0.023-1.324-0.369-2.347-1.037-3.067S468.505,511.903,467.368,511.903z"/>
</g>
</svg>
