<?xml version="1.0" encoding="utf-8"?>
<!-- Generator: Adobe Illustrator 15.0.0, SVG Export Plug-In . SVG Version: 6.00 Build 0)  -->
<!DOCTYPE svg PUBLIC "-//W3C//DTD SVG 1.1//EN" "http://www.w3.org/Graphics/SVG/1.1/DTD/svg11.dtd">
<svg version="1.1" id="Layer_1" xmlns="http://www.w3.org/2000/svg" xmlns:xlink="http://www.w3.org/1999/xlink" x="0px" y="0px"
	 width="800px" height="600px" viewBox="0 0 800 600" enable-background="new 0 0 800 600" xml:space="preserve">
<polygon fill="#29ABE2" points="653.311,227.512 699,121.512 270,121.512 315.692,227.519 "/>
<polygon fill="#F15A24" points="324.309,247.509 370,353.512 599,353.512 644.69,247.512 "/>
<g>
	<path d="M443.525,192.512l-1.863-6.117h-9.369l-1.863,6.117h-5.871l9.07-25.805h6.662l9.105,25.805H443.525z M440.361,181.825
		c-1.723-5.543-2.692-8.678-2.909-9.404s-0.372-1.301-0.466-1.723c-0.387,1.5-1.494,5.209-3.322,11.127H440.361z"/>
	<path d="M458.432,192.864c-2.32,0-4.137-0.894-5.449-2.681s-1.969-4.274-1.969-7.462c0-3.211,0.671-5.719,2.013-7.523
		s3.179-2.707,5.511-2.707c1.242,0,2.326,0.234,3.252,0.703s1.74,1.195,2.443,2.18h0.141l0.475-2.514h4.535v28.301h-5.379v-8.244
		c0-0.715,0.076-1.699,0.229-2.953h-0.229c-0.574,0.949-1.336,1.67-2.285,2.162S459.674,192.864,458.432,192.864z M460.348,188.663
		c1.359,0,2.355-0.39,2.988-1.169s0.979-2.142,1.037-4.087v-0.65c0-2.109-0.325-3.621-0.976-4.535s-1.696-1.371-3.138-1.371
		c-2.52,0-3.779,1.98-3.779,5.941c0,1.969,0.313,3.439,0.94,4.412S459.023,188.663,460.348,188.663z"/>
	<path d="M488.912,192.512l-0.721-2.514h-0.281c-0.574,0.914-1.389,1.62-2.443,2.118s-2.256,0.747-3.604,0.747
		c-2.309,0-4.049-0.618-5.221-1.854s-1.758-3.015-1.758-5.335V172.86h5.361v11.479c0,1.418,0.252,2.481,0.756,3.19
		s1.307,1.063,2.408,1.063c1.5,0,2.584-0.501,3.252-1.503s1.002-2.663,1.002-4.983v-9.246h5.361v19.652H488.912z"/>
	<path d="M498.422,167.78c0-1.746,0.973-2.619,2.918-2.619s2.918,0.873,2.918,2.619c0,0.832-0.243,1.479-0.729,1.942
		s-1.216,0.694-2.188,0.694C499.395,170.417,498.422,169.538,498.422,167.78z M504.012,192.512h-5.361V172.86h5.361V192.512z"/>
	<path d="M520.605,172.491c0.727,0,1.33,0.053,1.811,0.158l-0.404,5.027c-0.434-0.117-0.961-0.176-1.582-0.176
		c-1.711,0-3.044,0.439-3.999,1.318s-1.433,2.109-1.433,3.691v10.002h-5.361V172.86h4.061l0.791,3.305h0.264
		c0.609-1.102,1.433-1.989,2.47-2.663S519.387,172.491,520.605,172.491z"/>
	<path d="M534.879,192.864c-3.164,0-5.637-0.873-7.418-2.619s-2.672-4.219-2.672-7.418c0-3.293,0.823-5.839,2.47-7.638
		s3.923-2.698,6.829-2.698c2.777,0,4.939,0.791,6.486,2.373s2.32,3.768,2.32,6.557v2.602h-12.674
		c0.059,1.523,0.51,2.713,1.354,3.568s2.027,1.283,3.551,1.283c1.184,0,2.303-0.123,3.357-0.369s2.156-0.639,3.305-1.178v4.148
		c-0.938,0.469-1.939,0.817-3.006,1.046S536.414,192.864,534.879,192.864z M534.123,176.305c-1.137,0-2.027,0.36-2.672,1.081
		s-1.014,1.743-1.107,3.067h7.523c-0.023-1.324-0.369-2.347-1.037-3.067S535.26,176.305,534.123,176.305z"/>
</g>
<g>
	<path d="M428.927,310.512l-1.863-6.117h-9.369l-1.863,6.117h-5.871l9.07-25.804h6.662l9.105,25.804H428.927z M425.763,299.825
		c-1.723-5.543-2.692-8.678-2.909-9.404s-0.372-1.301-0.466-1.723c-0.387,1.5-1.494,5.209-3.322,11.127H425.763z"/>
	<path d="M445.591,310.863c-6.117,0-9.176-3.357-9.176-10.072c0-3.34,0.832-5.892,2.496-7.655s4.049-2.646,7.154-2.646
		c2.273,0,4.312,0.445,6.117,1.336l-1.582,4.148c-0.844-0.34-1.629-0.618-2.355-0.835s-1.453-0.325-2.18-0.325
		c-2.789,0-4.184,1.98-4.184,5.941c0,3.843,1.395,5.765,4.184,5.765c1.031,0,1.986-0.137,2.865-0.412s1.758-0.707,2.637-1.293v4.588
		c-0.867,0.551-1.743,0.932-2.628,1.143S446.938,310.863,445.591,310.863z"/>
	<path d="M464.399,306.592c0.938,0,2.062-0.205,3.375-0.615v3.99c-1.336,0.598-2.977,0.896-4.922,0.896
		c-2.145,0-3.706-0.541-4.685-1.625s-1.468-2.711-1.468-4.879v-9.474h-2.566v-2.268l2.953-1.793l1.547-4.148h3.428v4.184h5.502
		v4.025h-5.502v9.474c0,0.762,0.214,1.324,0.642,1.688S463.696,306.592,464.399,306.592z"/>
	<path d="M471.519,285.78c0-1.746,0.973-2.619,2.918-2.619s2.918,0.873,2.918,2.619c0,0.832-0.243,1.479-0.729,1.942
		s-1.216,0.694-2.188,0.694C472.491,288.417,471.519,287.538,471.519,285.78z M477.108,310.512h-5.361V290.86h5.361V310.512z"/>
	<path d="M487.409,310.512l-7.488-19.652h5.607l3.797,11.197c0.422,1.418,0.686,2.76,0.791,4.025h0.105
		c0.059-1.125,0.322-2.467,0.791-4.025l3.779-11.197h5.607l-7.488,19.652H487.409z"/>
	<path d="M515.692,310.512l-1.037-2.672h-0.141c-0.902,1.137-1.831,1.926-2.786,2.365s-2.2,0.658-3.735,0.658
		c-1.887,0-3.372-0.539-4.456-1.617s-1.626-2.613-1.626-4.605c0-2.086,0.729-3.623,2.188-4.614c1.459-0.99,3.659-1.538,6.601-1.644
		l3.41-0.105v-0.861c0-1.992-1.02-2.988-3.059-2.988c-1.57,0-3.416,0.475-5.537,1.424l-1.775-3.621
		c2.262-1.184,4.77-1.775,7.523-1.775c2.637,0,4.658,0.574,6.064,1.723s2.109,2.895,2.109,5.238v13.095H515.692z M514.11,301.406
		l-2.074,0.07c-1.559,0.047-2.719,0.328-3.48,0.844s-1.143,1.301-1.143,2.355c0,1.512,0.867,2.268,2.602,2.268
		c1.242,0,2.235-0.357,2.979-1.072s1.116-1.664,1.116-2.848V301.406z"/>
	<path d="M533.235,306.592c0.938,0,2.062-0.205,3.375-0.615v3.99c-1.336,0.598-2.977,0.896-4.922,0.896
		c-2.145,0-3.706-0.541-4.685-1.625s-1.468-2.711-1.468-4.879v-9.474h-2.566v-2.268l2.953-1.793l1.547-4.148h3.428v4.184h5.502
		v4.025h-5.502v9.474c0,0.762,0.214,1.324,0.642,1.688S532.532,306.592,533.235,306.592z"/>
	<path d="M549.478,310.863c-3.164,0-5.637-0.873-7.418-2.619s-2.672-4.219-2.672-7.417c0-3.293,0.823-5.839,2.47-7.638
		s3.923-2.698,6.829-2.698c2.777,0,4.939,0.791,6.486,2.373s2.32,3.768,2.32,6.557v2.601h-12.674
		c0.059,1.523,0.51,2.713,1.354,3.568s2.027,1.283,3.551,1.283c1.184,0,2.303-0.123,3.357-0.369s2.156-0.639,3.305-1.178v4.148
		c-0.938,0.469-1.939,0.818-3.006,1.047S551.013,310.863,549.478,310.863z M548.722,294.305c-1.137,0-2.027,0.36-2.672,1.081
		s-1.014,1.743-1.107,3.067h7.523c-0.023-1.324-0.369-2.347-1.037-3.067S549.858,294.305,548.722,294.305z"/>
</g>
<g>
	<path d="M354.682,72.57c1.411,2.044,1.852,4.046,1.322,6.011c-0.529,1.964-1.972,3.76-4.327,5.386l-1.728,1.193l4.665,6.754
		l-4.026,2.781l-13.114-18.988l6.065-4.189c2.303-1.591,4.396-2.304,6.28-2.141C351.704,69.541,353.324,70.605,354.682,72.57z
		 M347.671,81.861l1.325-0.915c1.238-0.855,1.996-1.739,2.272-2.653c0.276-0.914,0.093-1.838-0.554-2.773
		c-0.651-0.943-1.391-1.463-2.217-1.557s-1.789,0.239-2.888,0.998l-1.832,1.265L347.671,81.861z"/>
	<path d="M373.729,79.095c-2.338,1.615-4.609,2.232-6.816,1.851c-2.207-0.381-4.127-1.754-5.76-4.117
		c-1.68-2.433-2.371-4.734-2.072-6.903c0.298-2.169,1.521-3.996,3.668-5.479c2.052-1.417,4.054-1.937,6.004-1.556
		c1.949,0.378,3.637,1.599,5.06,3.66l1.328,1.922l-9.364,6.467c0.82,1.096,1.761,1.745,2.821,1.946
		c1.06,0.201,2.152-0.087,3.277-0.865c0.875-0.604,1.639-1.266,2.293-1.985c0.653-0.72,1.267-1.572,1.841-2.557l2.116,3.065
		c-0.453,0.824-1.016,1.593-1.687,2.306C375.766,77.563,374.863,78.312,373.729,79.095z M364.721,67.247
		c-0.84,0.58-1.314,1.3-1.423,2.162c-0.107,0.861,0.141,1.806,0.747,2.831l5.559-3.839c-0.692-0.965-1.47-1.545-2.331-1.736
		C366.411,66.472,365.561,66.667,364.721,67.247z"/>
	<path d="M390.855,56.122c1.632,2.363,2.286,4.643,1.96,6.836c-0.325,2.195-1.602,4.06-3.826,5.597
		c-1.395,0.963-2.835,1.507-4.32,1.632c-1.487,0.125-2.911-0.187-4.271-0.935c-1.361-0.748-2.568-1.884-3.62-3.408
		c-1.639-2.372-2.293-4.644-1.964-6.815c0.329-2.171,1.614-4.031,3.857-5.58c1.394-0.963,2.833-1.508,4.316-1.639
		c1.483-0.129,2.902,0.175,4.258,0.915C388.6,53.466,389.803,54.597,390.855,56.122z M380.816,63.055
		c0.993,1.438,1.979,2.362,2.96,2.771c0.979,0.411,2.002,0.247,3.066-0.489c1.057-0.729,1.563-1.619,1.522-2.671
		c-0.043-1.052-0.563-2.301-1.562-3.746c-0.993-1.438-1.971-2.354-2.936-2.75c-0.964-0.395-1.978-0.225-3.043,0.51
		c-1.057,0.73-1.571,1.612-1.546,2.65C379.306,60.368,379.817,61.609,380.816,63.055z"/>
	<path d="M407.313,55.899c-1.706,1.178-3.471,1.483-5.296,0.915l-0.208,0.144c0.977,1.116,1.53,1.77,1.661,1.96l4.063,5.884
		l-3.961,2.736l-14.441-20.91l3.221-2.225l1.859,1.498l0.182-0.125c-0.066-2.077,0.81-3.744,2.628-5
		c1.714-1.184,3.514-1.449,5.398-0.793c1.884,0.654,3.641,2.159,5.267,4.515c1.071,1.55,1.773,3.054,2.107,4.51
		c0.335,1.457,0.289,2.775-0.138,3.952C409.229,54.136,408.447,55.115,407.313,55.899z M397.938,44.824
		c-0.979,0.676-1.485,1.469-1.52,2.382c-0.034,0.913,0.418,2.067,1.357,3.464l0.296,0.429c1.076,1.559,2.079,2.516,3.009,2.871
		c0.93,0.356,1.896,0.187,2.901-0.507c1.774-1.226,1.651-3.303-0.369-6.229c-0.987-1.429-1.945-2.349-2.876-2.762
		C399.806,44.061,398.873,44.178,397.938,44.824z"/>
	<path d="M419.953,46.787l-3.961,2.736l-13.957-20.209l3.961-2.736L419.953,46.787z"/>
	<path d="M430.859,39.636c-2.338,1.614-4.609,2.232-6.817,1.851c-2.206-0.381-4.127-1.754-5.76-4.117
		c-1.68-2.433-2.37-4.733-2.072-6.902c0.299-2.169,1.521-3.996,3.669-5.479c2.052-1.417,4.054-1.937,6.003-1.556
		c1.95,0.378,3.638,1.599,5.061,3.66l1.327,1.922l-9.363,6.467c0.82,1.096,1.761,1.745,2.82,1.946
		c1.061,0.201,2.153-0.087,3.278-0.865c0.875-0.604,1.639-1.266,2.293-1.985c0.653-0.72,1.267-1.572,1.84-2.558l2.117,3.065
		c-0.453,0.824-1.016,1.593-1.688,2.307C432.896,38.105,431.993,38.853,430.859,39.636z M421.852,27.789
		c-0.84,0.58-1.314,1.3-1.423,2.162c-0.107,0.861,0.141,1.806,0.747,2.831l5.559-3.839c-0.693-0.965-1.47-1.545-2.331-1.736
		C423.542,27.014,422.69,27.208,421.852,27.789z"/>
</g>
<g>
	<g>
		<path fill="none" stroke="#000000" stroke-width="3" stroke-miterlimit="10" d="M443.5,28.488
			c23.137,10.833,36.031,28.981,39.812,55.796"/>
		<g>
			<path d="M484.5,102.355c-3.771-8.267-9.92-18.417-16.094-24.537l14.605,4.11l13.852-6.184
				C491.642,82.694,487.03,93.628,484.5,102.355z"/>
		</g>
	</g>
</g>
<polyline fill="none" stroke="#000000" stroke-width="2" stroke-miterlimit="10" points="242,68.509 223,68.509 223,174.516 
	242,174.516 "/>
<g>
	<path d="M164.938,113.645c-1.367,0-2.426,0.514-3.176,1.541s-1.125,2.459-1.125,4.295c0,3.82,1.434,5.73,4.301,5.73
		c1.203,0,2.66-0.301,4.371-0.902v3.047c-1.406,0.586-2.977,0.879-4.711,0.879c-2.492,0-4.398-0.756-5.719-2.268
		s-1.98-3.682-1.98-6.51c0-1.781,0.324-3.342,0.973-4.682s1.58-2.367,2.795-3.082s2.639-1.072,4.271-1.072
		c1.664,0,3.336,0.402,5.016,1.207l-1.172,2.953c-0.641-0.305-1.285-0.57-1.934-0.797S165.562,113.645,164.938,113.645z"/>
	<path d="M184.789,116.211c0,1.844-0.576,3.254-1.729,4.23s-2.791,1.465-4.916,1.465h-1.559V128h-3.633v-17.133h5.473
		c2.078,0,3.658,0.447,4.74,1.342S184.789,114.438,184.789,116.211z M176.586,118.93h1.195c1.117,0,1.953-0.221,2.508-0.662
		s0.832-1.084,0.832-1.928c0-0.852-0.232-1.48-0.697-1.887s-1.193-0.609-2.186-0.609h-1.652V118.93z"/>
	<path d="M195.277,128l-4.125-13.441h-0.105c0.148,2.734,0.223,4.559,0.223,5.473V128h-3.246v-17.133h4.945l4.055,13.102h0.07
		l4.301-13.102h4.945V128h-3.387v-8.109c0-0.383,0.006-0.824,0.018-1.324s0.064-1.828,0.158-3.984h-0.105L198.605,128H195.277z"/>
</g>
<rect x="370" y="374.512" fill="#FCEE21" width="229" height="106"/>
<g>
	<path d="M412.632,430.65v9.861h-5.449v-25.699h7.488c3.492,0,6.076,0.637,7.752,1.908s2.514,3.201,2.514,5.791
		c0,1.512-0.416,2.857-1.248,4.035s-2.01,2.1-3.533,2.768c3.867,5.777,6.387,9.51,7.559,11.197h-6.047l-6.135-9.861H412.632z
		 M412.632,426.221h1.758c1.723,0,2.994-0.287,3.814-0.861s1.23-1.477,1.23-2.707c0-1.219-0.419-2.086-1.257-2.602
		s-2.136-0.773-3.894-0.773h-1.652V426.221z"/>
	<path d="M439.421,440.863c-3.164,0-5.637-0.873-7.418-2.619s-2.672-4.219-2.672-7.418c0-3.293,0.823-5.838,2.47-7.637
		s3.923-2.699,6.829-2.699c2.777,0,4.939,0.791,6.486,2.373s2.32,3.768,2.32,6.557v2.602h-12.674
		c0.059,1.523,0.51,2.713,1.354,3.568s2.027,1.283,3.551,1.283c1.184,0,2.303-0.123,3.357-0.369s2.156-0.639,3.305-1.178v4.148
		c-0.938,0.469-1.939,0.818-3.006,1.047S440.956,440.863,439.421,440.863z M438.665,424.305c-1.137,0-2.027,0.361-2.672,1.082
		s-1.014,1.742-1.107,3.066h7.523c-0.023-1.324-0.369-2.346-1.037-3.066S439.802,424.305,438.665,424.305z"/>
	<path d="M460.075,436.592c0.938,0,2.062-0.205,3.375-0.615v3.99c-1.336,0.598-2.977,0.896-4.922,0.896
		c-2.145,0-3.706-0.541-4.685-1.625s-1.468-2.711-1.468-4.879v-9.475h-2.566v-2.268l2.953-1.793l1.547-4.148h3.428v4.184h5.502
		v4.025h-5.502v9.475c0,0.762,0.214,1.324,0.642,1.688S459.372,436.592,460.075,436.592z"/>
	<path d="M479.903,440.512l-1.037-2.672h-0.141c-0.902,1.137-1.831,1.926-2.786,2.365s-2.2,0.658-3.735,0.658
		c-1.887,0-3.372-0.539-4.456-1.617s-1.626-2.613-1.626-4.605c0-2.086,0.729-3.623,2.188-4.613s3.659-1.539,6.601-1.645l3.41-0.105
		v-0.861c0-1.992-1.02-2.988-3.059-2.988c-1.57,0-3.416,0.475-5.537,1.424l-1.775-3.621c2.262-1.184,4.77-1.775,7.523-1.775
		c2.637,0,4.658,0.574,6.064,1.723s2.109,2.895,2.109,5.238v13.096H479.903z M478.321,431.406l-2.074,0.07
		c-1.559,0.047-2.719,0.328-3.48,0.844s-1.143,1.301-1.143,2.355c0,1.512,0.867,2.268,2.602,2.268c1.242,0,2.235-0.357,2.979-1.072
		s1.116-1.664,1.116-2.848V431.406z"/>
	<path d="M488.938,415.779c0-1.746,0.973-2.619,2.918-2.619s2.918,0.873,2.918,2.619c0,0.832-0.243,1.48-0.729,1.943
		s-1.216,0.693-2.188,0.693C489.911,418.416,488.938,417.537,488.938,415.779z M494.528,440.512h-5.361v-19.652h5.361V440.512z"/>
	<path d="M518.294,440.512h-5.361v-11.479c0-1.418-0.252-2.48-0.756-3.189s-1.307-1.064-2.408-1.064c-1.5,0-2.584,0.502-3.252,1.504
		s-1.002,2.662-1.002,4.982v9.246h-5.361v-19.652h4.096l0.721,2.514h0.299c0.598-0.949,1.421-1.666,2.47-2.152
		s2.241-0.73,3.577-0.73c2.285,0,4.02,0.619,5.203,1.855s1.775,3.02,1.775,5.352V440.512z"/>
	<path d="M532.708,440.863c-3.164,0-5.637-0.873-7.418-2.619s-2.672-4.219-2.672-7.418c0-3.293,0.823-5.838,2.47-7.637
		s3.923-2.699,6.829-2.699c2.777,0,4.939,0.791,6.486,2.373s2.32,3.768,2.32,6.557v2.602H528.05c0.059,1.523,0.51,2.713,1.354,3.568
		s2.027,1.283,3.551,1.283c1.184,0,2.303-0.123,3.357-0.369s2.156-0.639,3.305-1.178v4.148c-0.938,0.469-1.939,0.818-3.006,1.047
		S534.243,440.863,532.708,440.863z M531.952,424.305c-1.137,0-2.027,0.361-2.672,1.082s-1.014,1.742-1.107,3.066h7.523
		c-0.023-1.324-0.369-2.346-1.037-3.066S533.089,424.305,531.952,424.305z"/>
	<path d="M551.306,440.863c-2.309,0-4.122-0.896-5.44-2.689s-1.978-4.277-1.978-7.453c0-3.223,0.671-5.732,2.013-7.531
		s3.19-2.699,5.546-2.699c2.473,0,4.359,0.961,5.66,2.883h0.176c-0.27-1.465-0.404-2.771-0.404-3.92v-6.293h5.379v27.352h-4.113
		l-1.037-2.549h-0.229C555.659,439.896,553.802,440.863,551.306,440.863z M553.187,436.592c1.371,0,2.376-0.398,3.015-1.195
		s0.987-2.15,1.046-4.061v-0.58c0-2.109-0.325-3.621-0.976-4.535s-1.708-1.371-3.173-1.371c-1.195,0-2.124,0.508-2.786,1.521
		s-0.993,2.486-0.993,4.42s0.334,3.385,1.002,4.352S551.944,436.592,553.187,436.592z"/>
</g>
</svg>
